<svg id="Layer_1" data-name="Layer 1" xmlns="http://www.w3.org/2000/svg" viewBox="0 0 638 243.47"><defs><style>.cls-1{fill:#80c41c;}.cls-2{fill:#070606;}</style></defs><title>Infinix Logo Vector</title><path class="cls-1" d="M317.63,583.13q-6.48,0-9.27,5.42h18.26A9.75,9.75,0,0,0,317.63,583.13Z" transform="translate(-181 -378.26)"/><path class="cls-1" d="M517.46,583.13c-4.33,0-7.41,1.81-9.28,5.42h18.26A9.74,9.74,0,0,0,517.46,583.13Z" transform="translate(-181 -378.26)"/><path class="cls-1" d="M686.14,583.51a10.55,10.55,0,0,0-7,2.51,7.66,7.66,0,0,0-3,6,7.4,7.4,0,0,0,3,5.83,10.59,10.59,0,0,0,7,2.49,10.06,10.06,0,0,0,6.84-2.56,7.69,7.69,0,0,0,2.93-5.94A7.47,7.47,0,0,0,693,586,10.28,10.28,0,0,0,686.14,583.51Z" transform="translate(-181 -378.26)"/><path class="cls-1" d="M782.15,548H217.85a36.86,36.86,0,0,0,0,73.71h564.3a36.86,36.86,0,0,0,0-73.71Zm-25.46,16.39h6.09V595h-6.09ZM264.39,570h-11v35.11h-6.23V570h-11v-5.55h28.22Zm31.15,35.11h-6.3V588.29a5.57,5.57,0,0,0-1.43-4,5,5,0,0,0-3.79-1.49,8.16,8.16,0,0,0-5.81,2.26,7.26,7.26,0,0,0-2.41,5.49v14.52h-6.3V563.65h6.3v19.41a21,21,0,0,1,4.87-3.85,11.67,11.67,0,0,1,5.52-1.19,9.32,9.32,0,0,1,6.58,2.57,8.07,8.07,0,0,1,2.77,6.14Zm15.95-6.17a11.87,11.87,0,0,0,6.43,1.87,11.74,11.74,0,0,0,9-3.93l4.6,3.07q-5.19,5.9-13.88,5.9a16.1,16.1,0,0,1-11.15-4,12.86,12.86,0,0,1-4.49-10,12.65,12.65,0,0,1,4.54-9.69,16.9,16.9,0,0,1,22.15.07,13.66,13.66,0,0,1,4.53,10.8h-25.5A8.66,8.66,0,0,0,311.49,598.91ZM386.6,570H367.26v10.16H386.6v5.48H367.33v19.47H361V564.42H386.6Zm31.69,24.52a10.31,10.31,0,0,1-3.66,8.14,15.34,15.34,0,0,1-18.73,0,10.6,10.6,0,0,1-3.58-8.33V578.75h6.3V593.6q0,6.87,6.85,6.86a6.34,6.34,0,0,0,4.81-1.84,6.89,6.89,0,0,0,1.78-5V578.75h6.23Zm22.16-10.66h-6.23v21.25h-6.3V583.83h-5v-5.14h5v-7.6h6.3v7.66h6.23Zm30.43,10.66a10.31,10.31,0,0,1-3.66,8.14,15.33,15.33,0,0,1-18.72,0,10.58,10.58,0,0,1-3.59-8.33V578.75h6.3V593.6q0,6.87,6.85,6.86a6.34,6.34,0,0,0,4.81-1.84,6.89,6.89,0,0,0,1.78-5V578.75h6.23ZM495.55,584a17.76,17.76,0,0,0-2.39-.31,7.69,7.69,0,0,0-5.35,2,6.37,6.37,0,0,0-2.15,4.9v14.58h-6.3V578.75h6.15v5.43a17.44,17.44,0,0,1,4.12-4.71,8.68,8.68,0,0,1,5.23-1.45,12.11,12.11,0,0,1,2.61.39Zm15.77,15a12.13,12.13,0,0,0,15.41-2.06l4.6,3.07q-5.19,5.9-13.87,5.9a16.14,16.14,0,0,1-11.16-4,12.89,12.89,0,0,1-4.49-10,12.68,12.68,0,0,1,4.54-9.69,16.91,16.91,0,0,1,22.16.07A13.73,13.73,0,0,1,533,593H507.53A8.67,8.67,0,0,0,511.32,598.91Zm56.27,6.17h-6.23V578.75h6.23Zm.27-32a5,5,0,0,1-3.39,1.24A5.11,5.11,0,0,1,561,573.1a3.81,3.81,0,0,1,0-6,5,5,0,0,1,3.44-1.27,4.91,4.91,0,0,1,3.39,1.27,3.84,3.84,0,0,1,0,6Zm24.43,30.25a11.21,11.21,0,0,1-7.24,2.47,12.63,12.63,0,0,1-10.4-5.17l5-2.1a8.32,8.32,0,0,0,5.44,2.23,6.27,6.27,0,0,0,3.42-.94,2.64,2.64,0,0,0,1.46-2.19q0-2.21-5.14-4c-3.43-1.18-5.8-2.36-7.12-3.57a5.77,5.77,0,0,1-2-4.44,6.67,6.67,0,0,1,2.81-5.47,11.1,11.1,0,0,1,7-2.19q4.25,0,9.49,3.86l-4.2,3.26a21.67,21.67,0,0,0-2.83-1.55,6.92,6.92,0,0,0-2.82-.53q-3.84,0-3.84,2.49c0,1.2,1.62,2.35,4.87,3.48a19.77,19.77,0,0,1,7,3.69,6.41,6.41,0,0,1,2.14,4.84A7.27,7.27,0,0,1,592.29,603.35ZM662.85,607,628.73,576.2v28.88h-6.31V562.79l34.12,30.91V564.42h6.31Zm34.42-5.39a15.83,15.83,0,0,1-10.91,4.23,17.09,17.09,0,0,1-11.51-4.18q-4.87-4.18-4.87-9.83,0-5.38,4.84-9.6a16.46,16.46,0,0,1,11.1-4.19,16.83,16.83,0,0,1,11.27,4.13q4.81,4.14,4.81,9.66A12.81,12.81,0,0,1,697.27,601.59ZM735,605.82,727,589l-8,16.58-14.65-26.85h5.51l8.87,16.19L727,577.63l8.36,17.48,8.83-16.36h5.51Zm27.69-1.16a4.1,4.1,0,0,1-2.79,1,4,4,0,0,1-2.77-1,3.16,3.16,0,0,1,0-4.88,4,4,0,0,1,2.75-1,4,4,0,0,1,2.79,1,3.15,3.15,0,0,1,0,4.88Z" transform="translate(-181 -378.26)"/><rect class="cls-2" x="2.16" y="11.07" width="23.57" height="127.13"/><rect class="cls-2" x="275.5" y="39.35" width="23.3" height="98.85"/><rect class="cls-2" x="467.16" y="39.48" width="23.57" height="98.72"/><path class="cls-2" d="M320,417.76H267.2s-9.6,0-13.1,7v-7H230.55v98.71H254.1V452.94a14.09,14.09,0,0,1,14.06-14.12h44.76A14.08,14.08,0,0,1,327,452.94v63.53h23.1V445.84s-1.74-28.08-30.08-28.08" transform="translate(-181 -378.26)"/><path class="cls-2" d="M596.54,417.76H543.77s-9.6,0-13.1,7v-7H507.11v98.71h23.56V452.94a14.08,14.08,0,0,1,14.05-14.12h44.76a14.08,14.08,0,0,1,14,14.12v63.53h23.11V445.84s-1.74-28.08-30.1-28.08" transform="translate(-181 -378.26)"/><rect class="cls-2" x="275.5" y="0.24" width="24.16" height="20.48"/><rect class="cls-2" x="466.57" y="0.24" width="23.86" height="20.48"/><path class="cls-2" d="M378.43,404.83v12.8H347.61s8.44,3.29,14.25,21.27h16.43v77.56h23.55V438.9H436V417.63H401.84s-.14.79-.29,0v-8.54c0-9.72,4.69-10.1,15.68-10.1H436V378.5H417.23s-38.8-4.58-38.8,26.33" transform="translate(-181 -378.26)"/><polygon class="cls-2" points="632.32 39.49 602.92 39.49 568.99 73.95 535.04 39.49 505.64 39.49 554.21 88.93 505.64 138.21 535.41 138.21 568.99 104.01 602.56 138.21 632.32 138.21 583.77 88.93 632.32 39.49"/></svg>