<?xml version="1.0" encoding="utf-8"?>
<!-- Generator: Adobe Illustrator 23.0.1, SVG Export Plug-In . SVG Version: 6.00 Build 0)  -->
<svg version="1.1" id="Livello_1" xmlns="http://www.w3.org/2000/svg" xmlns:xlink="http://www.w3.org/1999/xlink" x="0px" y="0px"
	 width="2096.845px" height="531.886px" viewBox="0 0 2096.845 531.886" enable-background="new 0 0 2096.845 531.886"
	 xml:space="preserve">
<g id="layer1_1_" transform="translate(0,-236.38712)">
	<path id="path4_1_" d="M1332.632,537.061c-36.511,0-66.22-29.709-66.22-66.22c0-36.51,29.709-66.22,66.22-66.22
		c36.51,0,66.22,29.71,66.22,66.22C1398.852,507.71,1368.784,537.061,1332.632,537.061 M1332.632,365.247
		c-58.345,0-105.594,47.249-105.594,105.594c0,58.345,47.249,105.594,105.594,105.594s105.594-47.249,105.594-105.594
		C1438.225,412.854,1390.977,365.247,1332.632,365.247"/>
	<path id="path6_1_" d="M1203.413,542.431h8.591v39.732h-8.591c-45.459,0-82.686-37.226-82.686-82.685V317.999h39.732v52.976h51.186
		v39.732h-51.186v89.128C1160.46,523.102,1179.789,542.431,1203.413,542.431"/>
	<path id="path8_1_" d="M1687.356,537.061c-36.51,0-66.22-29.709-66.22-66.22c0-36.51,29.709-66.22,66.22-66.22
		s66.22,29.71,66.22,66.22C1753.217,507.71,1723.508,537.061,1687.356,537.061 M1687.356,365.247
		c-58.345,0-105.594,47.249-105.594,105.594c0,58.345,47.249,105.594,105.594,105.594c58.345,0,105.594-47.249,105.594-105.594
		C1792.95,412.854,1745.701,365.247,1687.356,365.247"/>
	<path id="path10_1_" d="M1991.252,537.061c-36.51,0-66.22-29.709-66.22-66.22c0-36.51,29.709-66.22,66.22-66.22
		c36.51,0,66.22,29.71,66.22,66.22C2057.471,507.71,2027.404,537.061,1991.252,537.061 M1991.252,365.247
		c-58.345,0-105.594,47.249-105.594,105.594c0,58.345,47.249,105.594,105.594,105.594c25.772,0,49.396-9.307,67.651-24.698v20.761
		h37.942v-98.435c0-1.074,0-2.148,0-3.222C2096.845,412.854,2049.597,365.247,1991.252,365.247"/>
	<path id="path12_1_" d="M1547.399,365.247h18.971v39.732h-18.971c-23.624,0-42.953,19.329-42.953,42.954v25.772v49.039v51.186
		h-39.732V447.933C1464.713,402.474,1501.94,365.248,1547.399,365.247"/>
	<rect id="rect14_1_" x="1819.438" y="312.63" width="39.732" height="260.584"/>
	<path id="path16_1_" d="M856.564,453.302v125.639h-39.732V453.302c0-23.624-19.329-42.954-42.953-42.954
		s-42.953,19.329-42.953,42.954v125.639h-39.732V453.302c0-23.624-19.329-42.954-42.953-42.954
		c-23.624,0-42.953,19.329-42.953,42.954v125.639h-39.732V453.302c0-45.459,37.226-82.686,82.327-82.686
		c25.414,0,47.607,11.096,62.998,28.994c15.392-17.897,37.584-28.994,62.998-28.994
		C819.338,370.617,856.564,407.843,856.564,453.302"/>
	<path id="path18_1_" d="M989.004,542.431c-36.51,0-66.22-29.709-66.22-66.22c0-36.51,29.709-66.22,66.22-66.22
		c36.51,0,66.22,29.709,66.22,66.22S1025.156,542.431,989.004,542.431 M989.004,370.617c-58.703,0-105.952,47.249-105.952,105.594
		c0,58.345,47.249,105.594,105.594,105.594c58.345,0,105.594-47.249,105.594-105.594
		C1094.598,418.223,1047.349,370.617,989.004,370.617"/>
	<path id="path20_1_" d="M240.181,236.387C107.384,236.387,0,343.771,0,476.569C0,609.367,107.384,716.75,240.181,716.75
		s240.181-107.384,240.181-240.182C480.363,344.487,374.411,236.387,240.181,236.387"/>
	<path id="path22_1_" fill="#FFFFFF" d="M311.771,295.448l-71.231,236.244l-0.359,0.358l-0.716-0.358l-71.231-236.244
		L76.242,597.912h17.181c0,0,11.454-52.618,30.425-84.117c10.38-17.181,26.13-31.141,47.249-30.783
		c15.034,0.358,27.92,8.591,44.027,31.141c3.58,5.011,7.875,13.244,12.17,21.119c6.801,13.244,12.528,26.846,12.528,26.846
		s15.034-34.363,24.698-47.965c16.108-22.55,28.994-30.783,44.027-31.141c21.119-0.358,37.226,13.602,47.249,30.783
		c18.971,31.499,30.425,84.117,30.425,84.117h17.181L311.771,295.448z"/>
</g>
<g>
	<path d="M565.273,512.164l38.599-85.305h8.954l38.599,85.305H641.14l-9.922-22.385h-46.101l-10.043,22.385H565.273z
		 M588.868,481.188h38.599l-19.239-43.197L588.868,481.188z"/>
	<path d="M695.709,512.164v-84.7h9.559v75.867h47.674v8.833H695.709z"/>
	<path d="M765.488,484.697c0.645,6.373,3.044,11.435,7.199,15.186c4.154,3.751,9.094,5.626,14.823,5.626
		c7.502,0,14.076-2.943,19.723-8.833l5.808,5.203c-7.018,7.825-15.609,11.737-25.773,11.737c-8.793,0-16.195-3.044-22.204-9.136
		c-6.01-6.09-9.014-13.934-9.014-23.534c0-9.115,2.862-16.838,8.591-23.172c5.727-6.332,12.866-9.498,21.417-9.498
		c8.954,0,16.051,3.146,21.296,9.438c5.243,6.292,7.865,14.199,7.865,23.716c0,1.21-0.042,2.3-0.121,3.268H765.488z
		 M765.488,477.195h40.293c-0.565-6.05-2.562-11.071-5.99-15.064c-3.43-3.993-8.088-5.99-13.976-5.99
		c-5.324,0-9.882,1.979-13.673,5.93C768.35,466.023,766.132,471.065,765.488,477.195z"/>
	<path d="M824.741,512.164v-62.557h9.317v10.89c4.919-8.146,12.058-12.221,21.417-12.221c7.42,0,13.268,2.28,17.545,6.836
		c4.274,4.559,6.413,10.629,6.413,18.211v38.841h-9.317v-36.542c0-5.888-1.512-10.506-4.537-13.854
		c-3.025-3.347-7.281-5.021-12.766-5.021c-5.405,0-9.882,1.815-13.431,5.445c-3.55,3.63-5.324,8.349-5.324,14.156v35.816H824.741z"
		/>
	<path d="M944.349,503.996c-6.292,6.413-14.078,9.62-23.353,9.62c-9.277,0-17-3.165-23.171-9.499
		c-6.171-6.331-9.256-13.976-9.256-22.929v-0.242c0-8.954,3.125-16.638,9.377-23.051c6.25-6.413,14.015-9.619,23.292-9.619
		c9.275,0,17.02,3.166,23.232,9.498c6.21,6.334,9.317,13.976,9.317,22.93v0.242C953.787,489.9,950.641,497.584,944.349,503.996z
		 M921.238,505.266c6.695,0,12.2-2.338,16.517-7.018c4.314-4.678,6.473-10.364,6.473-17.061v-0.242
		c0-6.776-2.238-12.543-6.715-17.304c-4.477-4.758-9.982-7.139-16.517-7.139c-6.615,0-12.081,2.359-16.396,7.079
		c-4.316,4.719-6.474,10.427-6.474,17.121v0.242c0,6.775,2.218,12.523,6.655,17.242
		C909.218,502.907,914.704,505.266,921.238,505.266z"/>
	<path d="M980.831,512.648l-27.104-63.041h10.285l21.054,51.908l21.176-51.908h10.043l-27.225,63.041H980.831z"/>
	<path d="M1071.979,503.996c-6.292,6.413-14.078,9.62-23.354,9.62c-9.277,0-17-3.165-23.172-9.499
		c-6.171-6.331-9.256-13.976-9.256-22.929v-0.242c0-8.954,3.125-16.638,9.377-23.051c6.251-6.413,14.016-9.619,23.293-9.619
		c9.275,0,17.02,3.166,23.231,9.498c6.211,6.334,9.317,13.976,9.317,22.93v0.242C1081.417,489.9,1078.271,497.584,1071.979,503.996z
		 M1048.868,505.266c6.694,0,12.2-2.338,16.517-7.018c4.314-4.678,6.474-10.364,6.474-17.061v-0.242
		c0-6.776-2.239-12.543-6.716-17.304c-4.477-4.758-9.982-7.139-16.517-7.139c-6.615,0-12.081,2.359-16.396,7.079
		c-4.316,4.719-6.474,10.427-6.474,17.121v0.242c0,6.775,2.218,12.523,6.655,17.242
		C1036.847,502.907,1042.334,505.266,1048.868,505.266z"/>
	<path d="M1166.115,513.616c-12.101,0-22.204-4.193-30.311-12.584c-8.107-8.389-12.161-18.714-12.161-30.977v-0.241
		c0-12.18,4.073-22.525,12.222-31.037c8.146-8.51,18.351-12.766,30.612-12.766c7.179,0,13.311,1.131,18.393,3.389
		c5.082,2.259,9.962,5.607,14.641,10.043l-6.534,7.018c-8.148-7.744-17.021-11.616-26.619-11.616
		c-9.359,0-17.163,3.349-23.414,10.043c-6.252,6.697-9.377,14.925-9.377,24.685v0.242c0,9.842,3.146,18.131,9.438,24.865
		c6.292,6.736,14.076,10.104,23.354,10.104c5.484,0,10.324-1.008,14.52-3.025c4.193-2.016,8.47-5.082,12.826-9.195l6.292,6.171
		c-4.84,4.921-9.883,8.632-15.125,11.132C1179.625,512.364,1173.375,513.616,1166.115,513.616z"/>
	<path d="M1259.973,503.996c-6.292,6.413-14.078,9.62-23.354,9.62c-9.277,0-17-3.165-23.172-9.499
		c-6.171-6.331-9.256-13.976-9.256-22.929v-0.242c0-8.954,3.125-16.638,9.377-23.051c6.251-6.413,14.016-9.619,23.293-9.619
		c9.275,0,17.02,3.166,23.231,9.498c6.211,6.334,9.317,13.976,9.317,22.93v0.242C1269.411,489.9,1266.265,497.584,1259.973,503.996z
		 M1236.862,505.266c6.694,0,12.2-2.338,16.517-7.018c4.314-4.678,6.474-10.364,6.474-17.061v-0.242
		c0-6.776-2.239-12.543-6.716-17.304c-4.477-4.758-9.982-7.139-16.517-7.139c-6.615,0-12.081,2.359-16.396,7.079
		c-4.316,4.719-6.474,10.427-6.474,17.121v0.242c0,6.775,2.218,12.523,6.655,17.242
		C1224.841,502.907,1230.328,505.266,1236.862,505.266z"/>
	<path d="M1279.151,512.164v-62.557h9.316v10.526c5.243-7.904,11.979-11.857,20.207-11.857c9.357,0,16.052,4.155,20.086,12.463
		c5.403-8.308,12.745-12.463,22.022-12.463c7.179,0,12.845,2.259,17,6.775c4.154,4.519,6.231,10.648,6.231,18.393v38.72h-9.316
		v-36.542c0-6.05-1.434-10.709-4.296-13.976c-2.864-3.267-6.836-4.9-11.918-4.9c-4.922,0-9.035,1.735-12.342,5.203
		c-3.309,3.469-4.962,8.188-4.962,14.157v36.058h-9.195v-36.784c0-5.808-1.434-10.364-4.296-13.673
		c-2.864-3.307-6.797-4.961-11.797-4.961c-5.003,0-9.157,1.856-12.464,5.566c-3.309,3.711-4.961,8.43-4.961,14.156v35.695H1279.151z
		"/>
	<path d="M1387.094,531.524v-81.917h9.316v12.584c6.292-9.275,14.278-13.915,23.958-13.915c7.986,0,14.963,2.945,20.934,8.833
		c5.969,5.889,8.954,13.754,8.954,23.595v0.242c0,9.761-2.985,17.626-8.954,23.595c-5.971,5.971-12.947,8.954-20.934,8.954
		c-9.842,0-17.828-4.436-23.958-13.31v31.339H1387.094z M1418.675,505.146c6.292,0,11.534-2.179,15.729-6.534
		c4.193-4.356,6.292-10.204,6.292-17.545v-0.242c0-7.179-2.138-13.008-6.413-17.484c-4.276-4.478-9.479-6.716-15.608-6.716
		c-6.051,0-11.335,2.28-15.852,6.837c-4.519,4.558-6.775,10.306-6.775,17.242v0.242c0,7.018,2.257,12.807,6.775,17.363
		C1407.34,502.868,1412.625,505.146,1418.675,505.146z"/>
	<path d="M1479.076,513.495c-6.292,0-11.758-1.733-16.396-5.203c-4.64-3.468-6.958-8.228-6.958-14.278v-0.241
		c0-6.534,2.421-11.575,7.261-15.125c4.84-3.549,11.332-5.324,19.48-5.324c6.453,0,12.826,0.889,19.118,2.662v-1.937
		c0-5.484-1.614-9.68-4.84-12.584c-3.228-2.903-7.786-4.355-13.673-4.355c-6.132,0-12.463,1.493-18.997,4.477l-2.783-7.623
		c7.744-3.549,15.325-5.324,22.748-5.324c8.873,0,15.609,2.3,20.207,6.897c4.356,4.355,6.534,10.487,6.534,18.392v38.236h-9.196
		v-9.317C1496.016,509.946,1488.513,513.495,1479.076,513.495z M1480.891,505.993c5.808,0,10.727-1.573,14.762-4.719
		c4.032-3.146,6.05-7.179,6.05-12.101v-5.808c-6.131-1.773-12.221-2.662-18.271-2.662c-5.729,0-10.206,1.149-13.432,3.448
		c-3.228,2.299-4.84,5.345-4.84,9.136v0.242c0,3.792,1.513,6.817,4.537,9.075C1472.723,504.864,1476.454,505.993,1480.891,505.993z"
		/>
	<path d="M1523.58,512.164v-62.557h9.316v10.89c4.92-8.146,12.059-12.221,21.417-12.221c7.421,0,13.269,2.28,17.545,6.836
		c4.275,4.559,6.413,10.629,6.413,18.211v38.841h-9.316v-36.542c0-5.888-1.513-10.506-4.538-13.854
		c-3.024-3.347-7.28-5.021-12.766-5.021c-5.405,0-9.882,1.815-13.431,5.445c-3.551,3.63-5.324,8.349-5.324,14.156v35.816H1523.58z"
		/>
	<path d="M1597.014,531.886c-4.519,0-8.954-1.049-13.31-3.146l3.146-7.381c2.983,1.531,6.251,2.299,9.801,2.299
		c2.823,0,5.203-0.868,7.14-2.602c1.936-1.735,3.83-4.779,5.687-9.136l-28.435-62.314h10.285l22.748,52.15l20.086-52.15h9.922
		l-26.257,64.613c-2.662,6.372-5.608,10.909-8.833,13.613C1605.766,530.535,1601.773,531.886,1597.014,531.886z"/>
</g>
</svg>
